<svg width="32" height="32" viewBox="0 0 32 32" fill="none" xmlns="http://www.w3.org/2000/svg">
<path fill-rule="evenodd" clip-rule="evenodd" d="M11.6667 3.66669C11.6667 3.11441 11.219 2.66669 10.6667 2.66669C10.1144 2.66669 9.66668 3.11441 9.66668 3.66669V5.00002H7.33334C5.67649 5.00002 4.33334 6.34317 4.33334 8.00002V25.3334C4.33334 26.9902 5.67649 28.3334 7.33334 28.3334H24.6667C26.3235 28.3334 27.6667 26.9902 27.6667 25.3334V8.00002C27.6667 6.34317 26.3235 5.00002 24.6667 5.00002H22.3333V3.66669C22.3333 3.11441 21.8856 2.66669 21.3333 2.66669C20.7811 2.66669 20.3333 3.11441 20.3333 3.66669V5.00002H11.6667V3.66669ZM25.6667 11V8.00002C25.6667 7.44774 25.2189 7.00002 24.6667 7.00002H7.33334C6.78106 7.00002 6.33334 7.44774 6.33334 8.00002V11H25.6667ZM6.33334 13H25.6667V25.3334C25.6667 25.8856 25.2189 26.3334 24.6667 26.3334H7.33334C6.78106 26.3334 6.33334 25.8856 6.33334 25.3334V13Z" fill="#E9ECEF"/>
<path d="M11.7791 15.2253C11.4767 15.5276 11.4767 16.0179 11.7791 16.3202L14.9579 19.4985L11.7791 22.6769C11.4767 22.9792 11.4767 23.4694 11.7791 23.7718C12.0815 24.0741 12.5718 24.0741 12.8742 23.7718L16.053 20.5935L19.2304 23.7703C19.5328 24.0727 20.0231 24.0727 20.3255 23.7703C20.6279 23.468 20.6279 22.9778 20.3255 22.6754L17.1481 19.4985L20.3255 16.3217C20.6279 16.0193 20.6279 15.5291 20.3255 15.2267C20.0231 14.9244 19.5328 14.9244 19.2304 15.2267L16.053 18.4036L12.8742 15.2253C12.5718 14.9229 12.0815 14.9229 11.7791 15.2253Z" fill="#E9ECEF"/>
</svg>
