<svg width="16" height="16" viewBox="0 0 16 16" fill="none" xmlns="http://www.w3.org/2000/svg">
<path fill-rule="evenodd" clip-rule="evenodd" d="M13.0138 13.3228C13.7405 12.6399 14.3195 11.8152 14.7149 10.8997C15.1103 9.98414 15.3137 8.99725 15.3125 8C15.3125 3.96125 12.0388 0.6875 8.00001 0.6875C3.96125 0.6875 0.687505 3.96125 0.687505 8C0.686351 8.99725 0.889755 9.98414 1.28514 10.8997C1.68053 11.8152 2.2595 12.6399 2.98625 13.3228C4.34146 14.6029 6.13576 15.315 8.00001 15.3125C9.86425 15.315 11.6586 14.6029 13.0138 13.3228ZM3.60875 12.359C4.13531 11.7002 4.80351 11.1685 5.56373 10.8034C6.32395 10.4383 7.15666 10.2492 8.00001 10.25C8.84335 10.2492 9.67606 10.4383 10.4363 10.8034C11.1965 11.1685 11.8647 11.7002 12.3913 12.359C11.8168 12.9393 11.1328 13.3997 10.379 13.7136C9.62518 14.0275 8.81655 14.1886 8.00001 14.1875C7.18346 14.1886 6.37483 14.0275 5.62102 13.7136C4.86722 13.3997 4.18324 12.9393 3.60875 12.359ZM10.8125 5.75C10.8125 6.49592 10.5162 7.21129 9.98874 7.73874C9.4613 8.26618 8.74593 8.5625 8.00001 8.5625C7.25408 8.5625 6.53871 8.26618 6.01127 7.73874C5.48382 7.21129 5.18751 6.49592 5.18751 5.75C5.18751 5.00408 5.48382 4.28871 6.01127 3.76126C6.53871 3.23382 7.25408 2.9375 8.00001 2.9375C8.74593 2.9375 9.4613 3.23382 9.98874 3.76126C10.5162 4.28871 10.8125 5.00408 10.8125 5.75Z" fill="#A3A3A3"/>
</svg>
