<svg width="32" height="32" viewBox="0 0 32 32" fill="none" xmlns="http://www.w3.org/2000/svg">
<path d="M14.9995 15.9999V8.66699C14.9995 8.11471 15.4472 7.66699 15.9995 7.66699C16.5517 7.66699 16.9995 8.11471 16.9995 8.66699V15.5859L20.4776 19.064C20.8681 19.4545 20.8681 20.0877 20.4776 20.4783C20.0871 20.8688 19.454 20.8688 19.0634 20.4783L15.2923 16.7072L14.9995 15.9999Z" fill="#E9ECEF"/>
<path d="M15.2903 16.7051L14.9995 15.9999C14.9995 16.2749 15.1105 16.5243 15.2903 16.7051Z" fill="#E9ECEF"/>
<path fill-rule="evenodd" clip-rule="evenodd" d="M2.66675 16C2.66675 8.6365 8.63607 2.66718 15.9996 2.66718C23.3632 2.66718 29.3325 8.6365 29.3325 16C29.3325 23.3636 23.3632 29.333 15.9996 29.333C8.63607 29.333 2.66675 23.3636 2.66675 16ZM15.9996 4.66718C9.74064 4.66718 4.66675 9.74107 4.66675 16C4.66675 22.2591 9.74064 27.333 15.9996 27.333C22.2587 27.333 27.3325 22.2591 27.3325 16C27.3325 9.74107 22.2587 4.66718 15.9996 4.66718Z" fill="#E9ECEF"/>
</svg>
