<svg width="24" height="24" viewBox="0 0 24 24" fill="none" xmlns="http://www.w3.org/2000/svg">
<path d="M11.9997 1.99988C6.47705 1.99988 2.00006 6.47688 2.00006 11.9995C2.00006 17.5222 6.47705 21.9992 11.9997 21.9992C17.5224 21.9992 21.9994 17.5222 21.9994 11.9995C21.9994 6.47688 17.5224 1.99988 11.9997 1.99988ZM11.2495 6.5C11.2495 6.08579 11.5853 5.75 11.9995 5.75C12.4137 5.75 12.7495 6.08579 12.7495 6.5V11.6891L15.3582 14.2978C15.6511 14.5907 15.6511 15.0656 15.3582 15.3584C15.0653 15.6513 14.5904 15.6513 14.2975 15.3584L11.4692 12.5301L11.2495 11.9997V6.5Z" fill="#323544"/>
</svg>
